<?xml version="1.0" encoding="utf-8"?>
<!-- Generator: Adobe Illustrator 17.0.0, SVG Export Plug-In . SVG Version: 6.00 Build 0)  -->
<!DOCTYPE svg PUBLIC "-//W3C//DTD SVG 1.1//EN" "http://www.w3.org/Graphics/SVG/1.1/DTD/svg11.dtd">
<svg version="1.1" id="Layer_1" xmlns="http://www.w3.org/2000/svg" xmlns:xlink="http://www.w3.org/1999/xlink" x="0px" y="0px"
	 width="390px" height="500px" viewBox="0.085 -167.545 390 500" enable-background="new 0.085 -167.545 390 500"
	 xml:space="preserve">
<g display="none">
	<path display="inline" fill="#FFFFFF" d="M378.495,35.017c2.627-9.478-0.9-24.15-5.468-28.535
		c-2.868-18.029-15.153-32.912-31.657-39.463c-8.953-13.406-24.069-22.333-41.296-22.755c-9.267-9.314-22.096-15.085-36.274-15.085
		c-4.716,0-9.28,0.652-13.616,1.848c-8.44-6.126-18.809-9.75-30.03-9.75c-6.645,0-12.986,1.281-18.813,3.588
		c-5.825-2.307-12.168-3.588-18.812-3.588c-12.008,0-23.043,4.149-31.772,11.077c-3.115-0.594-6.328-0.917-9.617-0.917
		c-11.851,0-22.752,4.041-31.426,10.805c-17.131,2.723-31.417,13.95-38.422,29.213C55.741-21.406,44.388-6.716,41.936,10.838
		c-12.823,8.121-21.788,21.783-23.52,37.624C11.393,57.22,7.188,68.329,7.188,80.425c0,5.69,0.944,11.156,2.657,16.269
		c-2.674,6.206-4.163,13.043-4.163,20.23c0,28.132,22.705,50.953,50.786,51.162c2.975,25.428,24.582,45.162,50.807,45.162
		c2.423,0,4.868-0.694,7.253-1.455l11.741,0.606c1.659,0.483,3.372,0.849,5.115,0.849l1.905-0.089v10.862
		c0,10.83,8.756,19.611,19.587,19.611c10.83,0,19.599-8.781,19.599-19.611c0-26.509,17.538-47.046,33.891-60.554
		c1.078,0.068,2.159,0.114,3.257,0.114c3.625,0,7.159-0.381,10.569-1.1c6.989,3.58,14.901,5.615,23.292,5.615
		c15.265,0,28.958-6.691,38.333-17.292c17.684-5.417,31.295-20.153,35.098-38.488c0.977,0.058,1.96,0.091,2.95,0.091
		c24.104,0,44.303-16.668,49.729-39.104c8.812-9.193,13.182-16.298,13.182-25.035C382.776,41.926,382.017,37.721,378.495,35.017
		L378.495,35.017z"/>
	<path display="inline" fill="#F6A279" d="M210.938,53.559c-0.32,0-0.646-0.069-0.955-0.213c-1.129-0.528-1.616-1.872-1.088-3.001
		l11.48-24.54c0.529-1.13,1.872-1.615,3.002-1.088c1.129,0.528,1.616,1.872,1.088,3.001l-11.48,24.54
		C212.601,53.078,211.788,53.559,210.938,53.559z"/>
	<path display="inline" fill="#F6A279" d="M153.705,247.02c-12.683,0-23-10.316-23-22.997v-7.456
		c-2.708-0.244-5.215-1.093-7.467-1.854c-0.999-0.338-1.955-0.662-2.881-0.921c-0.911,0.251-1.867,0.562-2.867,0.886
		c-2.832,0.918-6.041,1.959-9.359,1.959c-26.689,0-49.302-19.262-53.754-45.262c-28.503-1.736-51.225-25.573-51.225-54.449
		c0-7.047,1.326-13.896,3.943-20.381c-1.618-5.232-2.438-10.649-2.438-16.12c0-12.021,4.029-23.809,11.363-33.308
		c1.991-15.634,10.543-29.465,23.654-38.288c2.933-17.405,13.995-32.167,29.93-39.917c7.675-15.773,22.339-26.851,39.573-29.87
		c9.524-7.193,20.852-10.991,32.818-10.991c2.895,0,5.826,0.238,8.732,0.709c9.489-7.116,20.746-10.869,32.657-10.869
		c6.455,0,12.777,1.126,18.812,3.35c6.039-2.224,12.36-3.35,18.813-3.35c11.037,0,21.615,3.268,30.696,9.465
		c4.248-1.038,8.597-1.562,12.949-1.562c14.169,0,27.507,5.365,37.71,15.136c16.848,0.833,32.428,9.468,42.084,23.34
		c16.988,7.13,29.36,22.554,32.603,40.646c5.045,5.903,7.82,19.349,6.04,28.924c3.112,3.392,3.927,8.178,3.927,14.431
		c0,10.234-5.371,18.136-13.502,26.725c-6.243,24.072-27.822,40.801-52.796,40.801l-0.289-0.001
		c-4.698,17.879-18.18,32.209-35.86,37.962c-10.329,11.278-24.938,17.728-40.232,17.728c-8.327,0-16.316-1.834-23.768-5.454
		c-3.32,0.624-6.711,0.939-10.097,0.939c-0.667,0-1.366-0.017-2.114-0.048c-21.009,17.672-31.658,36.878-31.658,57.102
		C176.703,236.704,166.386,247.02,153.705,247.02z M137.477,209.656v14.367c0,8.946,7.28,16.224,16.228,16.224
		c8.947,0,16.226-7.277,16.226-16.224c0-22.343,12.146-44.186,35.127-63.166l1.033-0.854l1.338,0.085
		c1.139,0.072,2.136,0.107,3.046,0.107c3.317,0,6.64-0.345,9.873-1.026l1.174-0.248l1.068,0.548
		c6.789,3.478,14.106,5.241,21.749,5.241c13.673,0,26.72-5.886,35.796-16.148l0.633-0.715l0.912-0.28
		c16.679-5.108,29.237-18.879,32.775-35.937l0.594-2.865l2.921,0.172c0.969,0.058,1.869,0.085,2.751,0.085
		c22.143,0,41.238-15.015,46.437-36.513l0.215-0.888l0.633-0.659c8.923-9.309,12.24-15.459,12.24-22.692
		c0-5.34-0.464-8.461-2.768-10.429c-0.152-0.101-0.296-0.214-0.429-0.337c-1.615-1.173-4.017-1.9-7.563-2.46
		c-4.56-0.726-6.811,2.963-7.053,3.386c-0.923,1.61-2.979,2.194-4.6,1.288c-1.62-0.906-2.218-2.931-1.329-4.561
		c0.185-0.338,4.631-8.282,14.037-6.803c2.411,0.381,4.482,0.892,6.259,1.536c0.646-8.282-2.349-18.169-5.262-20.965l-0.821-0.788
		l-0.179-1.123c-2.63-16.535-13.958-30.654-29.562-36.848l-0.981-0.389l-0.586-0.877c-8.633-12.926-23.049-20.871-38.562-21.25
		l-1.358-0.033l-0.959-0.963c-9.039-9.084-21.069-14.087-33.874-14.087c-4.281,0-8.56,0.581-12.717,1.726l-1.57,0.433l-1.318-0.957
		c-8.205-5.956-17.901-9.104-28.04-9.104c-6.041,0-11.951,1.127-17.566,3.351l-1.247,0.494l-1.247-0.494
		c-5.612-2.223-11.522-3.351-17.565-3.351c-10.881,0-21.14,3.577-29.667,10.344l-1.215,0.964l-1.523-0.29
		c-2.985-0.569-6.007-0.857-8.983-0.857c-10.733,0-20.88,3.489-29.344,10.089l-0.688,0.537l-0.863,0.137
		c-15.776,2.504-29.188,12.702-35.877,27.279l-0.524,1.141l-1.141,0.524C58.656-18.625,48.407-4.878,46.146,11.306l-0.217,1.554
		l-1.325,0.839C32.229,21.537,24.222,34.342,22.638,48.83l-0.107,0.98l-0.617,0.77C15.056,59.133,11.43,69.453,11.43,80.424
		c0,5.167,0.835,10.279,2.482,15.196l0.411,1.227l-0.512,1.189c-2.579,5.982-3.887,12.337-3.887,18.889
		c0,26.149,21.275,47.581,47.425,47.775l2.991,0.022l0.347,2.971c2.813,24.04,23.209,42.169,47.444,42.169
		c2.248,0,4.8-0.828,7.27-1.628c1.361-0.441,2.768-0.898,4.167-1.235l0.792-0.19l0.792,0.191c1.467,0.353,2.885,0.832,4.255,1.296
		c2.381,0.806,4.63,1.566,6.805,1.566c0.304,0,0.603-0.021,0.902-0.04c0.286-0.019,0.572-0.037,0.859-0.047L137.477,209.656
		L137.477,209.656z"/>
	<path display="inline" fill="#F6A279" d="M57.324,171.473c-1.855,0-3.369-1.496-3.386-3.355c-0.018-1.869,1.483-3.398,3.352-3.417
		c0.267-0.004,26.941-0.477,46.174-15.983c16.506-13.308,38.671-4.872,49.323-0.817c0.804,0.306,1.55,0.59,2.23,0.84
		c18.632,6.864,38.167,11.104,52.255,11.343c1.869,0.031,3.36,1.573,3.328,3.443c-0.031,1.85-1.541,3.329-3.385,3.329l-0.059-0.001
		c-14.807-0.25-35.174-4.646-54.482-11.759c-0.701-0.259-1.469-0.551-2.297-0.866c-10.199-3.881-29.183-11.106-42.663-0.239
		c-21.104,17.017-49.174,17.472-50.358,17.483L57.324,171.473L57.324,171.473z"/>
	<path display="inline" fill="#F6A279" d="M314.664,88.362c-5.948,0-11.284-1.968-15.083-5.658
		c-5.349-5.195-33.947-30.566-71.743-19.766l-1.222,0.349l-0.933-0.863c-6.525-6.042-21.087-12.827-38.909-14.364
		c-19.232-1.657-36.617,3.357-48.94,14.125c-4.492,3.755-2.254,7.575-1.761,8.303c0.695,1.025,0.441,2.428-0.578,3.133
		c-1.017,0.704-2.408,0.466-3.123-0.546c-1.874-2.656-3.758-9.068,2.528-14.322c29.249-25.558,75.904-15.002,92.898-0.489
		c39.587-10.615,69.323,15.757,74.929,21.202c3.742,3.636,9.549,5.106,15.926,4.042c6.845-1.145,12.81-4.932,15.197-9.65
		c6.117-12.089,0.073-24.065,0.012-24.185c-0.571-1.106-0.142-2.468,0.963-3.042c1.107-0.576,2.465-0.147,3.041,0.956
		c0.298,0.569,7.201,14.104,0.014,28.31c-3.015,5.956-10.269,10.692-18.482,12.065C317.79,88.23,316.206,88.362,314.664,88.362
		L314.664,88.362z"/>
	<path display="inline" fill="#F6A279" d="M128.662,64.862c-2.92,0-5.31-1.013-6.818-3.023c-0.748-0.998-0.546-2.413,0.451-3.161
		c0.998-0.748,2.413-0.545,3.161,0.451c1.373,1.832,5.438,1.559,9.883-0.664c1.116-0.557,2.472-0.105,3.029,1.009
		c0.558,1.115,0.106,2.471-1.009,3.029C134.208,64.079,131.229,64.862,128.662,64.862L128.662,64.862z"/>
	<path display="inline" fill="#F6A279" d="M331.294,8.401l-0.188-0.008c-1.243-0.103-2.167-1.193-2.064-2.436
		c0.44-5.332-2.05-11.325-6.499-15.64c-4.687-4.545-10.904-6.631-17.52-5.884l-1.275,0.145l-0.776-1.021
		c-25.787-33.91-70.355-24.693-83.671-17.5c-1.099,0.593-2.467,0.184-3.06-0.913s-0.184-2.467,0.913-3.06
		c7.54-4.073,22.899-8.087,38.814-7.27c14.386,0.737,34.597,5.702,49.828,25.016c7.487-0.517,14.519,2.038,19.89,7.246
		c5.395,5.231,8.404,12.608,7.855,19.253C333.444,7.508,332.457,8.401,331.294,8.401L331.294,8.401z"/>
	<path display="inline" fill="#F6A279" d="M261.873,112.27c-4.146,0-8.608-0.534-12.803-1.637
		c-4.736-1.245-10.682-3.642-13.95-8.155c-5.958,3.316-17.636,5.602-28.004,3.993c-7.015-1.087-12.427-3.846-15.799-8.027
		c-11.571,5.579-30.932,6.144-41.521-6.693c-29.456,8.912-50.938,3.736-67.512-16.226c-7.148-8.61-10.384-20.987-9.358-35.793
		c0.765-11.028,3.57-19.449,3.689-19.802c0.398-1.182,1.678-1.815,2.859-1.418s1.816,1.678,1.419,2.859
		c-0.027,0.082-2.759,8.309-3.471,18.779c-0.643,9.467,0.281,22.789,8.335,32.49c15.533,18.708,35.928,23.262,64.184,14.339
		l1.547-0.489l0.957,1.311c9.196,12.604,28.57,11.41,38.448,5.77l1.889-1.079l1.148,1.848c3.138,5.049,9.279,6.958,13.877,7.67
		c10.875,1.687,23.201-1.566,26.581-4.456l2.293-1.96l1.233,2.752c1.536,3.426,5.906,6.239,12.304,7.921
		c9.565,2.515,19.921,1.55,23.232-0.89c1.002-0.739,2.417-0.524,3.156,0.479s0.525,2.417-0.479,3.156
		C273.229,111.147,267.882,112.269,261.873,112.27L261.873,112.27z"/>
	<path display="inline" fill="#F6A279" d="M94.306,131.969c-24.978,0-31.111-19.238-31.174-19.447
		c-0.361-1.193,0.313-2.453,1.506-2.815c1.188-0.357,2.448,0.311,2.813,1.5c0.244,0.784,6.151,18.724,32.048,15.961
		c10.54-1.125,15.918-3.896,20.663-6.341c7.905-4.074,14.15-7.29,36.462-0.585c25.473,7.656,41.305-1.562,41.46-1.657
		c1.069-0.643,2.457-0.293,3.097,0.776c0.641,1.07,0.293,2.456-0.776,3.097c-0.712,0.427-17.72,10.329-45.081,2.108
		c-20.566-6.184-25.821-3.474-33.094,0.274c-4.844,2.496-10.873,5.603-22.252,6.817C97.989,131.869,96.097,131.969,94.306,131.969
		L94.306,131.969z"/>
	<path display="inline" fill="#F6A279" d="M218.953-7.469c-15.719,0-24.36-6.179-28.911-11.579
		c-7.707-9.146-8.388-21.292-6.628-28.914c2.434-10.547,5.932-15.013,6.08-15.198c0.778-0.975,2.198-1.132,3.173-0.355
		c0.971,0.775,1.132,2.188,0.363,3.163c-0.064,0.083-3.057,4.047-5.217,13.406c-1.525,6.607-0.952,17.117,5.682,24.989
		c6.056,7.185,16.017,10.599,28.798,9.876c1.258-0.078,2.311,0.881,2.382,2.126c0.07,1.245-0.882,2.311-2.126,2.381
		C221.311-7.503,220.111-7.47,218.953-7.469L218.953-7.469z"/>
	<path display="inline" fill="#F6A279" d="M185.145-45.855c-0.679,0-1.35-0.305-1.794-0.886c-2.092-2.734-5.534-3.268-7.399-3.343
		c-3.913-0.162-7.347,1.24-8.602,2.635c-0.834,0.928-2.261,1.001-3.188,0.167s-1.001-2.262-0.167-3.188
		c2.398-2.663,7.282-4.32,12.138-4.125c4.587,0.184,8.424,1.999,10.805,5.111c0.758,0.99,0.569,2.407-0.421,3.165
		C186.105-46.006,185.623-45.855,185.145-45.855L185.145-45.855z"/>
	<path display="inline" fill="#F6A279" d="M289.086,71.823c-0.592,0-1.183-0.231-1.626-0.691c-0.865-0.898-0.838-2.327,0.06-3.192
		l20.694-19.941c0.896-0.866,2.327-0.839,3.192,0.059s0.838,2.327-0.06,3.192l-20.694,19.941
		C290.215,71.613,289.65,71.823,289.086,71.823L289.086,71.823z"/>
	<path display="inline" fill="#F6A279" d="M134.087,216.546c-1.773,0-3.264-1.381-3.376-3.175c-0.117-1.867,1.302-3.475,3.168-3.592
		c6.138-0.384,40.507-10.74,44.984-47.31c0.228-1.856,1.927-3.168,3.773-2.95c1.856,0.228,3.177,1.916,2.95,3.772
		c-2.571,20.999-14.144,33.893-23.399,41.012c-10.201,7.846-21.605,11.843-27.885,12.235L134.087,216.546z"/>
	<path display="inline" fill="#F6A279" d="M36.235,108.697l-0.155-0.005c-1.243-0.085-2.182-1.158-2.099-2.401
		c0.015-0.223,1.548-20.263,17.457-25.468c-3.215-2.673-5.921-5.851-7.728-9.135c-3.274-5.954-3.565-11.981-0.841-17.43
		c0.558-1.115,1.914-1.566,3.029-1.01c1.115,0.558,1.567,1.914,1.01,3.029c-4.77,9.541,4.082,19.447,11.195,23.778l5.773,3.516
		l-6.728,0.659c-7.071,0.693-12.343,4.574-15.667,11.535c-2.594,5.432-2.993,10.777-2.996,10.83
		C38.402,107.785,37.411,108.697,36.235,108.697L36.235,108.697z"/>
	<path display="inline" fill="#F6A279" d="M151.653,20.04l-0.181-0.007c-27.026-2.145-25.796-25.439-25.781-25.674
		c0.083-1.244,1.156-2.19,2.402-2.103c1.242,0.082,2.182,1.154,2.104,2.395c-0.046,0.783-0.879,19.095,21.633,20.881
		c1.243,0.099,2.17,1.186,2.072,2.429C153.808,19.143,152.819,20.04,151.653,20.04L151.653,20.04z"/>
	<path display="inline" fill="#F6A279" d="M102.628,8.651c-2.016,0-2.406-2.033-2.638-3.248c-0.27-1.412-1.497-8.875,0.906-17.2
		c2.609-9.044,8.627-15.668,17.401-19.156c17.17-6.826,31.163-2.431,42.78,13.436c0.736,1.006,0.518,2.418-0.488,3.155
		c-1.005,0.735-2.418,0.519-3.155-0.488c-10.37-14.164-22.276-17.946-37.468-11.907C100.353-18.961,104.222,3.479,104.6,5.292
		c0.183,0.326,0.287,0.701,0.287,1.101C104.886,7.64,103.875,8.651,102.628,8.651z"/>
	<path display="inline" fill="#F6A279" d="M170.382,48.137c-1.046,0-1.985-0.731-2.208-1.796c-0.254-1.215,0.521-2.406,1.732-2.668
		c0.486-0.111,4.614-1.205,4.614-6.167c0-1.502,0.335-2.75,0.995-3.708c0.764-1.109,1.928-1.745,3.195-1.745
		c2.194,0,4.464,2.04,4.464,5.453c0,0.287-0.021,0.636-0.046,1.029c-0.083,1.29-0.196,3.056,0.69,4
		c0.843,0.899,2.581,1.087,3.891,1.087c1.247,0,2.258,1.011,2.258,2.258s-1.011,2.258-2.258,2.258c-3.203,0-5.62-0.846-7.184-2.514
		c-1.368-1.458-1.815-3.252-1.931-4.825c-1.339,4.685-5.406,6.802-7.748,7.291C170.691,48.121,170.536,48.137,170.382,48.137z"/>
	<path display="inline" fill="#F6A279" d="M142.248,173.448c-5.619,0-9.126-1.882-12.84-3.875
		c-4.208-2.258-8.559-4.592-16.791-4.592c-8.226,0-13.396,2.333-18.396,4.589c-4.42,1.994-8.595,3.878-14.339,3.878
		c-11.973,0-20.791-4.173-21.16-4.351c-0.562-0.271-0.798-0.944-0.528-1.506c0.269-0.562,0.943-0.798,1.505-0.529
		c0.086,0.041,8.749,4.128,20.183,4.128c5.258,0,9.218-1.787,13.411-3.679c4.974-2.244,10.612-4.788,19.324-4.788
		c8.8,0,13.612,2.582,17.858,4.86c3.606,1.936,6.721,3.606,11.772,3.606c5.049,0,9.442-1.659,14.53-3.58
		c6.066-2.29,12.941-4.887,22.269-4.887c0.624,0,1.129,0.506,1.129,1.129s-0.505,1.129-1.129,1.129
		c-8.916,0-15.586,2.519-21.471,4.741C152.501,171.639,147.709,173.448,142.248,173.448z"/>
	<path display="inline" fill="#F6A279" d="M142.248,164.436c-5.619,0-9.126-1.882-12.84-3.874
		c-4.208-2.258-8.559-4.592-16.791-4.592c-8.224,0-13.393,2.333-18.391,4.589c-2.512,1.134-4.885,2.205-7.549,2.943
		c-0.603,0.169-1.223-0.186-1.39-0.786s0.186-1.223,0.786-1.39c2.497-0.692,4.793-1.729,7.224-2.826
		c4.973-2.244,10.609-4.788,19.32-4.788c8.8,0,13.612,2.582,17.858,4.86c3.606,1.935,6.721,3.605,11.772,3.605
		s9.445-1.658,14.533-3.578c2.983-1.126,6.068-2.29,9.554-3.21c0.603-0.159,1.221,0.201,1.379,0.804
		c0.159,0.603-0.201,1.221-0.803,1.38c-3.374,0.89-6.403,2.033-9.333,3.139C152.504,162.627,147.711,164.436,142.248,164.436
		L142.248,164.436z"/>
	<path display="inline" fill="#F6A279" d="M142.249,155.427c-5.618,0-9.125-1.882-12.838-3.874
		c-3.339-1.792-6.791-3.644-12.233-4.322c-0.619-0.077-1.058-0.642-0.98-1.26c0.077-0.619,0.64-1.059,1.26-0.98
		c5.859,0.73,9.664,2.771,13.021,4.573c3.606,1.935,6.72,3.605,11.771,3.605c3.954,0,7.584-1.079,10.614-2.136
		c0.591-0.201,1.232,0.106,1.438,0.695c0.205,0.588-0.106,1.231-0.694,1.438C150.398,154.283,146.539,155.427,142.249,155.427
		L142.249,155.427z"/>
	<path display="inline" fill="#F6A279" d="M142.248,181.914c-5.619,0-9.126-1.882-12.84-3.874
		c-4.208-2.258-8.559-4.592-16.791-4.592c-8.226,0-13.396,2.332-18.396,4.588c-4.42,1.994-8.595,3.878-14.339,3.878
		c-11.973,0-20.791-4.173-21.16-4.351c-0.562-0.271-0.798-0.944-0.528-1.506c0.269-0.561,0.943-0.798,1.505-0.529
		c0.086,0.041,8.749,4.128,20.183,4.128c5.258,0,9.218-1.786,13.411-3.678c4.975-2.244,10.613-4.788,19.324-4.788
		c8.8,0,13.612,2.582,17.858,4.86c3.606,1.935,6.721,3.605,11.772,3.605c5.049,0,9.442-1.659,14.53-3.58
		c6.066-2.29,12.941-4.886,22.269-4.886c0.624,0,1.129,0.506,1.129,1.129s-0.505,1.129-1.129,1.129
		c-8.916,0-15.586,2.519-21.471,4.74C152.501,180.104,147.708,181.914,142.248,181.914L142.248,181.914z"/>
	<path display="inline" fill="#F6A279" d="M142.248,190.381c-5.619,0-9.126-1.882-12.84-3.875
		c-4.208-2.258-8.559-4.592-16.791-4.592c-8.226,0-13.396,2.333-18.396,4.589c-4.42,1.994-8.595,3.878-14.339,3.878
		c-6.558,0-12.196-1.286-15.772-2.365c-0.597-0.181-0.935-0.811-0.754-1.407c0.18-0.597,0.808-0.931,1.407-0.755
		c3.43,1.035,8.837,2.27,15.12,2.27c5.258,0,9.218-1.787,13.411-3.679c4.974-2.244,10.612-4.788,19.324-4.788
		c8.8,0,13.612,2.582,17.858,4.86c3.606,1.936,6.721,3.606,11.772,3.606c5.048,0,9.442-1.659,14.53-3.579
		c5.404-2.041,11.53-4.354,19.439-4.806c0.626-0.03,1.156,0.44,1.191,1.062c0.036,0.622-0.44,1.156-1.062,1.191
		c-7.564,0.433-13.262,2.584-18.771,4.663C152.501,188.571,147.708,190.381,142.248,190.381L142.248,190.381z"/>
	<path display="inline" fill="#F6A279" d="M142.246,198.847c-5.619,0-9.126-1.882-12.84-3.874
		c-4.208-2.258-8.558-4.592-16.791-4.592c-8.226,0-13.396,2.332-18.396,4.588c-4.42,1.994-8.595,3.878-14.339,3.878
		c-2.76,0-5.589-0.228-8.408-0.675c-0.616-0.099-1.036-0.677-0.938-1.292c0.098-0.616,0.676-1.03,1.292-0.938
		c2.702,0.43,5.412,0.647,8.054,0.647c5.258,0,9.218-1.786,13.411-3.678c4.975-2.244,10.613-4.788,19.324-4.788
		c8.8,0,13.612,2.582,17.858,4.86c3.607,1.935,6.721,3.605,11.773,3.605c5.051,0,9.446-1.659,14.534-3.581
		c4.208-1.59,8.56-3.232,13.873-4.163c0.611-0.102,1.2,0.303,1.307,0.918c0.107,0.614-0.303,1.199-0.917,1.307
		c-5.104,0.893-9.354,2.498-13.465,4.051C152.503,197.036,147.709,198.847,142.246,198.847L142.246,198.847z"/>
	<path display="inline" fill="#F6A279" d="M142.248,207.312c-5.619,0-9.126-1.882-12.84-3.874
		c-4.208-2.258-8.559-4.592-16.791-4.592c-8.223,0-13.392,2.331-18.391,4.586c-3.448,1.556-6.705,3.024-10.701,3.614
		c-0.622,0.085-1.191-0.336-1.281-0.952c-0.091-0.617,0.335-1.19,0.952-1.282c3.684-0.543,6.801-1.949,10.102-3.438
		c4.974-2.243,10.611-4.786,19.319-4.786c8.8,0,13.612,2.582,17.858,4.86c3.606,1.935,6.721,3.605,11.772,3.605
		c5.454,0,11.174-1.968,17.043-4.16c0.586-0.219,1.234,0.079,1.453,0.663c0.218,0.584-0.079,1.233-0.663,1.452
		C154.01,205.277,148.078,207.312,142.248,207.312L142.248,207.312z"/>
	<path display="inline" fill="#F6A279" d="M133.525,213.858c-0.156,0-0.313-0.032-0.464-0.101c-1.256-0.567-2.421-1.192-3.655-1.854
		c-4.208-2.259-8.558-4.594-16.787-4.594c-8.208,0-13.417,2.347-18.013,4.417c-0.57,0.252-1.237,0.003-1.493-0.565
		s-0.003-1.237,0.565-1.493c4.566-2.057,10.248-4.616,18.941-4.616c8.796,0,13.608,2.583,17.854,4.862
		c1.199,0.644,2.332,1.251,3.518,1.787c0.568,0.256,0.82,0.925,0.564,1.493C134.366,213.611,133.955,213.858,133.525,213.858
		L133.525,213.858z"/>
	<path display="inline" fill="#F6A279" d="M260.999,61.851c-0.309,0-0.623-0.064-0.924-0.199c-1.137-0.51-1.645-1.846-1.135-2.983
		c0.15-0.334,14.926-33.807,8.744-65.43c-0.239-1.224,0.559-2.41,1.783-2.649c1.218-0.237,2.409,0.559,2.648,1.783
		c6.462,33.059-8.42,66.729-9.057,68.146C262.683,61.355,261.86,61.851,260.999,61.851L260.999,61.851z"/>
	<line display="inline" fill="none" x1="210.94" y1="51.301" x2="222.42" y2="26.761"/>
</g>
<g display="none">
	<path display="inline" fill="#FFFFFF" d="M216.095,302.738c15.922,25.727,122.546-22.677,106.846-51.46
		c-11.12-28.999-29.218-43.609-23.984-81.113c5.231-37.504,2.614-88.091,7.846-126.467C312.036,5.32,324.25-42.65,325.121-57.478
		c0.87-14.827-25.293-22.679-30.527-2.617c-5.233,20.062-14.827,58.438-22.674,77.627c-7.849,19.188-6.11-11.34-3.492-40.995
		c2.618-29.653,6.975-87.219,0-101.171c-6.974-13.957-32.271-17.444-35.759,17.441c-3.49,34.89-4.361,52.332-5.232,69.777
		c-0.874,17.444,0-77.625-1.744-95.067c-1.747-17.444-36.637-20.061-38.379,13.083c-1.743,33.142,3.492,126.467,0.875,134.317
		c-2.618,7.849-34.017-36.632-46.228-39.249C129.75-26.947,101.839-10.378,98.35,3.579c-3.486,13.956-5.013,18.096-5.883,24.205
		c10.031,0.434,17.006,7.412,22.241,24.856c12.21-10.465,15.915-22.898,21.148-24.64c5.232-1.746,9.16,8.287,10.906,18.753
		c1.744,10.465,7.407,23.112,0.43,34.45c-6.975,11.34-14.391,25.734-19.623,12.651c-5.233-13.085-10.031-2.183-9.159-19.626
		c0.876-17.444-14.825-61.925-34.885-40.122c-6.979,10.465-6.106,24.421-11.339,33.146c-5.233,8.72-13.083,16.571,0,35.761
		c13.083,19.188,41.864,68.031,62.796,88.089c20.935,20.061,31.397,23.55,43.61,46.227
		C190.806,260.001,203.98,283.155,216.095,302.738L216.095,302.738z"/>
	<path display="inline" fill="#5DA3A0" d="M234.63,313.955h-0.009c-13.39-0.003-19.279-4.978-21.863-9.152
		c-11.516-18.613-24.525-41.301-37.62-65.614c-8.157-15.147-15.331-21.222-26.193-30.416c-4.801-4.065-10.241-8.67-16.676-14.837
		c-16.289-15.608-36.755-47.545-51.7-70.863c-4.584-7.154-8.543-13.33-11.624-17.848c-13.217-19.384-6.837-29.4-1.713-37.447
		c0.54-0.847,1.078-1.692,1.59-2.545c2.062-3.438,3.107-8.195,4.214-13.232c1.419-6.457,3.026-13.775,7.224-20.072l0.378-0.48
		c2.657-2.889,5.412-4.912,8.233-6.053c0.581-3.367,1.402-6.445,2.64-11.084c0.799-2.996,1.793-6.723,3.032-11.683
		c3.686-14.746,29.726-31.16,44.594-31.16c1.3,0,2.526,0.122,3.648,0.361c6.793,1.456,15.768,10.698,28.686,24.631
		c4.341,4.684,9.895,10.674,13.385,13.68c0.471-9.211-0.167-32.966-0.74-54.321c-0.742-27.653-1.584-58.995-0.72-75.427
		c1.066-20.335,13.827-29.438,26.001-29.438c10.767,0,19.262,6.799,20.2,16.168c0.321,3.217,0.556,8.937,0.729,16.065
		c5.018-20.001,18.047-21.728,22.342-21.728c7.895,0,15.638,4.883,19.269,12.151c5.442,10.885,5.573,44.666,0.399,103.27
		c-1.52,17.224-2.095,27.843-2.198,34.371c6.502-17.671,13.845-46.042,18.854-65.391c0.644-2.491,1.247-4.823,1.802-6.948
		c2.449-9.39,9.276-14.996,18.263-14.996c5.757,0,11.496,2.442,15.352,6.533c3.249,3.443,4.891,7.812,4.627,12.299
		c-0.432,7.338-3.351,21.59-7.047,39.637c-4.019,19.618-8.574,41.854-11.3,61.839c-2.584,18.953-3.246,41.37-3.886,63.047
		c-0.645,21.848-1.313,44.44-3.962,63.431c-3.531,25.305,4.038,39.577,12.804,56.1c3.717,7.008,7.56,14.252,10.869,22.834
		c2.142,4.082,3.514,10.692-1.653,19.391c-6.162,10.379-20.511,21.606-39.368,30.799
		C267.364,308.675,248.348,313.955,234.63,313.955L234.63,313.955z M86.624,36.536c-3.258,5.022-4.612,11.184-5.922,17.147
		c-1.249,5.682-2.428,11.048-5.149,15.586c-0.548,0.913-1.123,1.817-1.7,2.723c-4.681,7.35-8.725,13.697,1.578,28.808
		c3.143,4.61,7.131,10.831,11.747,18.035c14.731,22.986,34.906,54.467,50.522,69.433c6.26,5.999,11.604,10.522,16.318,14.513
		c11.129,9.424,19.171,16.231,28.033,32.685c13.022,24.176,25.949,46.724,37.384,65.207c2.777,4.487,9.793,5.431,15.189,5.431h0.008
		c27.064,0.001,72.316-22.265,83.486-41.078c2.754-4.638,3.204-8.52,1.38-11.869l-0.219-0.473
		c-3.158-8.236-6.923-15.333-10.564-22.198c-9.013-16.991-17.526-33.04-13.643-60.862c2.59-18.569,3.251-40.942,3.89-62.58
		c0.647-21.883,1.314-44.51,3.956-63.876c2.76-20.245,7.344-42.616,11.387-62.354c3.489-17.034,6.503-31.746,6.902-38.521
		c0.173-2.958-1.264-5.143-2.501-6.454c-2.367-2.51-6.061-4.069-9.643-4.069c-3.094,0-8.596,1.186-10.667,9.126
		c-0.553,2.121-1.156,4.448-1.8,6.935c-5.544,21.417-13.921,53.784-21.04,71.188c-2.181,5.333-4.103,8.421-7.471,8.423h-0.005
		c-1.305,0-2.527-0.548-3.442-1.545c-2.248-2.453-3.808-7.885-0.115-49.704c6.52-73.852,3.048-93.771,0.399-99.07
		c-2.333-4.672-7.256-7.811-12.248-7.811c-8.582,0-14.6,8.929-16.095,23.886c-3.481,34.796-4.364,52.479-5.219,69.581
		c-0.109,2.179-0.291,5.825-4.071,5.856l-1.63,0.013l-1.166-1.148c-1.291-1.275-1.291-1.275-1.379-10.553
		c-0.045-4.783-0.072-11.431-0.102-18.987c-0.096-24.004-0.244-60.278-1.221-70.053c-0.598-5.974-6.687-9.1-12.39-9.1
		c-7.845,0-17.311,5.762-18.165,22c-0.847,16.12-0.01,47.297,0.728,74.804c1.044,38.864,1.355,56.338-0.05,60.548
		c-0.742,2.227-2.619,3.611-4.898,3.611c-4.26,0-8.96-4.658-21.302-17.97c-7.843-8.461-19.699-21.248-24.574-22.294
		c-0.581-0.125-1.255-0.188-2.003-0.188c-11.656,0-34.196,14.085-36.977,25.213c-1.254,5.02-2.257,8.78-3.063,11.803
		c-0.908,3.405-1.558,5.839-2.045,8.108c8.545,1.95,14.729,8.676,19.407,21.084c3.724-3.994,6.444-8.061,8.746-11.505
		c3.175-4.751,5.683-8.502,9.413-9.744c0.795-0.265,1.611-0.4,2.424-0.4c8.602,0,12.209,13.929,13.594,22.232
		c0.355,2.131,0.893,4.399,1.461,6.799c2.121,8.948,4.759,20.083-1.56,30.352c-0.613,0.997-1.229,2.016-1.847,3.039
		c-5.405,8.948-10.073,16.676-16.222,16.677c-3.633,0-6.506-2.58-8.54-7.666c-1.729-4.322-3.055-5.048-4.338-5.751
		c-4.541-2.488-5.59-5.682-5.097-15.528c0.207-4.134-0.565-9.657-2.064-15.338l-1.478-4.925l-0.043-0.142
		c-2.35-6.979-5.691-13.645-9.547-17.7c-2.388-2.513-4.731-3.785-6.963-3.785C91.982,32.141,89.37,33.619,86.624,36.536
		L86.624,36.536z M119.212,53.873c2.294,7.742,3.381,15.362,3.12,20.549c-0.32,6.405,0.253,7.702,0.371,7.897l0.658,0.355
		c2.569,1.409,5.294,3.32,7.853,9.72c0.656,1.641,1.194,2.365,1.46,2.653c2.156-0.989,6.776-8.637,9.295-12.808
		c0.628-1.041,1.257-2.08,1.881-3.094c4.618-7.505,2.579-16.108,0.607-24.429c-0.601-2.533-1.167-4.925-1.566-7.319
		c-1.659-9.947-4.574-14.997-5.867-15.648c-1.215,0.525-3.472,3.903-5.296,6.63C128.845,42.697,125,48.451,119.212,53.873
		L119.212,53.873z"/>
	<path display="inline" fill="#FFFFFF" d="M150.248,77.93c0,0,17.662,9.812,43.828,7.851"/>
	<path display="inline" fill="#5DA3A0" d="M187.097,88.659c-22.638,0-37.44-8.064-38.119-8.443
		c-1.263-0.702-1.718-2.295-1.017-3.557c0.702-1.262,2.294-1.717,3.554-1.018c0.202,0.111,17.389,9.408,42.364,7.531
		c1.441-0.113,2.697,0.972,2.804,2.413c0.108,1.441-0.973,2.698-2.413,2.806C191.803,88.575,189.408,88.659,187.097,88.659z"/>
	<path display="inline" fill="#FFFFFF" d="M210.429,67.463c0,0,22.896,22.897,57.564,24.858"/>
	<path display="inline" fill="#5DA3A0" d="M267.995,94.937l-0.15-0.004c-35.26-1.995-58.303-24.657-59.267-25.621
		c-1.022-1.022-1.022-2.676-0.001-3.697c1.02-1.023,2.676-1.023,3.699-0.004c0.223,0.222,22.657,22.219,55.863,24.097
		c1.444,0.081,2.546,1.318,2.466,2.76C270.526,93.86,269.372,94.937,267.995,94.937L267.995,94.937z"/>
	<path display="inline" fill="#FFFFFF" d="M244.442,87.743c0,0-15.043,15.7-21.585,52.984"/>
	<path display="inline" fill="#5DA3A0" d="M222.859,143.345l-0.455-0.039c-1.423-0.249-2.375-1.607-2.125-3.03
		c6.604-37.635,21.636-53.678,22.273-54.343c1.001-1.045,2.655-1.078,3.699-0.08c1.043,0.998,1.079,2.651,0.083,3.695
		c-0.144,0.152-14.601,15.722-20.902,51.63C225.211,142.451,224.108,143.345,222.859,143.345L222.859,143.345z"/>
	<path display="inline" fill="#FFFFFF" d="M202.578,121.105c0,0,15.047,24.202,3.924,59.525"/>
	<path display="inline" fill="#5DA3A0" d="M206.505,183.247c-0.261,0-0.525-0.038-0.788-0.122c-1.379-0.433-2.143-1.902-1.709-3.282
		c10.597-33.656-3.511-57.129-3.654-57.361c-0.757-1.229-0.378-2.84,0.849-3.599s2.836-0.383,3.598,0.841
		c0.64,1.031,15.549,25.638,4.197,61.693C208.647,182.532,207.616,183.247,206.505,183.247z"/>
	<path display="inline" fill="#FFFFFF" d="M210.429,12.515c0,0,13.738-2.617,24.858,3.924"/>
	<path display="inline" fill="#5DA3A0" d="M235.284,19.056c-0.451,0-0.906-0.117-1.325-0.361
		c-10.105-5.944-22.918-3.634-23.045-3.608c-1.427,0.262-2.787-0.669-3.055-2.085c-0.268-1.419,0.662-2.786,2.08-3.056
		c0.599-0.115,14.838-2.723,26.674,4.238c1.245,0.733,1.662,2.336,0.929,3.582C237.055,18.595,236.181,19.056,235.284,19.056z"/>
	<path display="inline" fill="#FFFFFF" d="M132.259,28.869c0,0,13.41-9.811,14.718-20.932"/>
	<path display="inline" fill="#5DA3A0" d="M132.263,31.485c-0.805,0-1.6-0.371-2.113-1.07c-0.854-1.165-0.601-2.802,0.563-3.657
		c0.125-0.092,12.509-9.288,13.664-19.127c0.169-1.435,1.465-2.463,2.904-2.294c1.435,0.169,2.462,1.469,2.294,2.904
		c-1.424,12.114-15.186,22.311-15.771,22.738C133.339,31.321,132.799,31.485,132.263,31.485z"/>
	<path display="inline" fill="#FFFFFF" d="M149.595,44.567c0,0,3.269,1.963,13.735-3.27"/>
	<path display="inline" fill="#5DA3A0" d="M151.686,47.545c-1.928,0-2.983-0.462-3.439-0.735l2.695-4.486l-0.231-0.119
		c0.028,0.01,2.987,0.982,11.449-3.249c1.289-0.644,2.863-0.123,3.51,1.17c0.647,1.292,0.122,2.865-1.17,3.51
		C158.295,46.741,154.232,47.545,151.686,47.545L151.686,47.545z"/>
</g>
<g>
	<path fill="#FFFFFF" d="M334.291,109.223c3.688-11.854,5.685-24.435,5.685-37.475c0-32.748-12.521-62.63-33.122-85.293
		l-1.647,0.222c10.362-5.019,18.709-8.611,20.522-10.712c4.988-5.784,3.176-18.693,0-26.962c-3.178-8.269-11.801-6.866-9.983-9.984
		c-4.311-6.672-12.255-4.895-12.255-4.895s-12.401,12.891-27.48,26.266c-19.547-8.096-45.454-15.823-63.333-16.74l5.515-2.768
		c0-43.657,32.545-34.457,38.215-31.341c4.089-5.914,9.859-15.358,9.859-27.377c-59.232-23.811-73.425,27.152-73.425,27.152v-38.724
		c-17.83-4.676-30.551,0-30.551,0l-0.852,65.357c-13.241-25.954-32.561-55.842-37.605-62.911
		c-15.823-0.023-27.396,13.355-27.396,13.355s7.483,11.907,11.23,18.583c-14.407-7.231-44.132,0.782-52.631,8.35
		C53.88-70.433,65.119-60.649,65.119-60.649s11.777-6.589,22.228-7.446c24.509-2.003,34.27,15.344,34.27,15.344l2.5-0.18
		c-15.42,11.492-33.897,32.716-32.239,67.692h-0.003c-2.927,6.726-5.516,13.136-7.617,20.126c-0.192,0.591-0.369,1.336-0.523,1.932
		l0.004,0.097c-3.223,11.258-5.164,23.242-5.162,34.794c0,28.088,9.239,54.072,24.86,75.197
		c1.673,45.521,30.138,84.431,70.406,101.811l0.003,0.113c12.759,30.94,43.287,51.836,78.948,51.836
		c47.117,0,85.319-37.513,85.319-83.73c0-11.547-2.388-22.574-6.699-32.581c5.083-12.928,7.903-26.975,7.903-41.66
		C339.316,131.061,337.543,119.818,334.291,109.223L334.291,109.223z M145.716,8.123l-0.261,0.035
		c0.324-0.889,0.694-1.791,1.088-2.694L145.716,8.123z M161.265-50.833l-0.012,0.905l-0.669-0.939L161.265-50.833z"/>
	<path fill="none" stroke="#E76F70" stroke-width="8.6932" stroke-miterlimit="10" d="M269.2-43.941
		c-19.075-10.673-41.149-16.77-64.678-16.77c-16.078,0-32.08,3.783-46.303,8.992"/>
	<path fill="none" stroke="#E76F70" stroke-width="8.6932" stroke-miterlimit="10" d="M87.117,11.097
		c-7.859,16.478-13.301,36.991-13.298,56.384c0,28.088,9.239,54.053,24.86,75.179c1.673,45.52,30.138,84.324,70.406,101.705
		c12.757,30.472,43.287,51.938,78.949,51.938c47.119,0,85.319-37.466,85.319-83.683c0-11.547-2.386-22.549-6.699-32.556
		c5.083-12.929,7.903-26.961,7.903-41.647c0-11.634-1.773-22.866-5.025-33.46c3.687-11.854,5.684-24.435,5.684-37.475
		c0-32.748-12.521-62.63-33.121-85.293"/>
	<path fill="none" stroke="#E76F70" stroke-width="5.7946" stroke-linecap="round" stroke-miterlimit="10" d="M155.711-31.254
		c-2.865-2.416-6.064-6.211-8.918-10.805c-2.85-4.594-4.817-9.115-5.697-12.722"/>
	<path fill="none" stroke="#E76F70" stroke-width="5.7946" stroke-linecap="round" stroke-miterlimit="10" d="M311.312-36.269
		c-1.163-1.957-2.236-4.773-2.945-7.981c-0.715-3.21-0.929-6.206-0.698-8.463"/>
	<path fill="none" stroke="#E76F70" stroke-width="8.6932" stroke-linecap="round" stroke-miterlimit="10" d="M201.273,35.745
		c0,0-15.427-8.511-12.707-30.044c3.176-25.125,32.674-33.632,42.657-28.086"/>
	<path fill="none" stroke="#E76F70" stroke-width="8.6932" stroke-linecap="round" stroke-miterlimit="10" d="M199.63-13.733
		c0,0,33.751,0.12,55.08-16.351c21.327-16.468,44.019-40.061,44.019-40.061s7.944-1.778,12.253,4.895
		c-1.813,3.118,6.807,1.714,9.986,9.984c3.175,8.269,4.986,21.179,0,26.962c-4.996,5.786-59.457,22.812-69.436,50.131"/>
	<path fill="none" stroke="#E76F70" stroke-width="8.6932" stroke-miterlimit="10" d="M116.859-57.018
		c0,0-9.761-17.347-34.272-15.345c-10.451,0.857-22.228,7.446-22.228,7.446S49.12-74.7,50.278-90.944
		c8.499-7.567,38.224-15.58,52.631-8.35c-3.746-6.676-11.23-18.583-11.23-18.583s11.573-13.378,27.396-13.355
		c5.957,8.348,31.825,48.52,44.074,76.453"/>
	<path fill="none" stroke="#E76F70" stroke-width="8.6932" stroke-linecap="round" stroke-miterlimit="10" d="M137.667,23.861
		c0,0-3.108-32.852,28.434-46.265c4.178-2.493,1.185-14.761-6.661-27.401c-7.851-12.645-17.597-20.871-21.773-18.381
		c-9.073,5.342-53.068,24.863-50.548,79.284"/>
	<path fill="none" stroke="#E76F70" stroke-width="8.6932" stroke-miterlimit="10" d="M159.508-63.718l-2.303-69.96
		c0,0,13.212-4.676,30.226,0v38.724c0,0,14.518-50.963,73.75-27.152c0,12.018-5.445,21.462-9.532,27.377
		c-5.674-3.116-38.215-12.314-38.215,31.341"/>
	<path fill="none" stroke="#E76F70" stroke-width="8.6932" stroke-linecap="round" stroke-miterlimit="10" d="M169.082,244.368
		c16.764,5.357,38.089,7.93,60.325,0"/>
	<path fill="none" stroke="#E76F70" stroke-width="5.7946" stroke-linecap="round" stroke-miterlimit="10" d="M182.21,89.106
		c2.269,0,15.431,0.889,19.972-5.79c2.27,6.679,29.504,26.263,59,14.691c7.919,10.348,12.707,40.951,0,55.636
		c8.019,23.147-3.181,40.951-10.893,47.188"/>
	<polyline fill="none" stroke="#E76F70" stroke-width="5.7946" stroke-linecap="round" stroke-miterlimit="10" points="
		261.182,154.761 239.055,157.43 206.094,137.732 206.094,125.383 	"/>
	
		<line fill="none" stroke="#E76F70" stroke-width="5.7946" stroke-linecap="round" stroke-miterlimit="10" x1="206.094" y1="137.732" x2="191.744" y2="137.732"/>
	<polyline fill="none" stroke="#E76F70" stroke-width="5.7946" stroke-linecap="round" stroke-miterlimit="10" points="
		229.409,151.667 182.21,177.793 167.992,177.793 	"/>
	
		<line fill="none" stroke="#E76F70" stroke-width="5.7946" stroke-linecap="round" stroke-miterlimit="10" x1="182.21" y1="177.793" x2="182.21" y2="191.813"/>
	
		<line fill="none" stroke="#E76F70" stroke-width="5.7946" stroke-linecap="round" stroke-miterlimit="10" x1="239.052" y1="157.43" x2="233.64" y2="177.793"/>
	<path fill="none" stroke="#E76F70" stroke-width="5.7946" stroke-linecap="round" stroke-miterlimit="10" d="M306.447,119.705
		h-12.256l-32.154-20.472l11.055-44.292c-3.405-3.338-9.108-8.93-9.108-8.93"/>
	
		<line fill="none" stroke="#E76F70" stroke-width="5.7946" stroke-linecap="round" stroke-miterlimit="10" x1="294.191" y1="119.705" x2="294.191" y2="131.724"/>
	<polyline fill="none" stroke="#E76F70" stroke-width="5.7946" stroke-linecap="round" stroke-miterlimit="10" points="
		262.037,182.312 289.43,211.511 289.43,223.197 	"/>
	
		<line fill="none" stroke="#E76F70" stroke-width="5.7946" stroke-linecap="round" stroke-miterlimit="10" x1="289.43" y1="211.511" x2="300.318" y2="211.511"/>
	<path fill="none" stroke="#E76F70" stroke-width="5.7946" stroke-linecap="round" stroke-miterlimit="10" d="M273.088,54.94
		c4.427-4.338,9.616-9.433,9.616-9.433"/>
	<path fill="none" stroke="#E76F70" stroke-width="8.6932" stroke-linecap="round" stroke-miterlimit="10" d="M98.679,142.66
		c0,0,6.612-49.327,60.045-69.357c4.089-1.932,8.124-6.748,8.124-10.233c0-5.44-4.493-9.85-10.042-9.85
		c-0.488,0-0.956,0.075-1.43,0.141c0.891-1.469,1.43-3.163,1.43-4.996c0-5.437-4.49-9.848-10.038-9.848
		c-0.486,0-0.961,0.075-1.432,0.143c0.887-1.468,1.432-3.161,1.432-4.995c0-5.437-4.497-9.848-10.04-9.848
		c-0.49,0-0.961,0.074-1.431,0.144c0.886-1.47,1.431-3.165,1.431-4.996c0-5.437-4.492-9.85-10.041-9.85
		c-0.488,0-0.96,0.074-1.432,0.144c0.889-1.473,1.432-3.165,1.432-4.999c0-5.437-4.493-9.848-10.041-9.848
		c-1.864,0-3.632,0.468-5.101,1.369c-5.065,3.078-27.868,18.748-32.567,36.924"/>
	<path fill="#E76F70" d="M119.075,3.529c0,1.197-0.989,2.17-2.215,2.17c-1.219,0-2.207-0.973-2.207-2.17
		c0-1.199,0.989-2.17,2.207-2.17C118.086,1.359,119.075,2.331,119.075,3.529"/>
	<path fill="#E76F70" d="M129.714,18.551c0,1.197-0.989,2.17-2.214,2.17c-1.222,0-2.214-0.973-2.214-2.17
		c0-1.196,0.993-2.169,2.214-2.169C128.726,16.383,129.714,17.355,129.714,18.551"/>
	<path fill="#E76F70" d="M139.326,33.574c0,1.2-0.99,2.169-2.212,2.169s-2.21-0.97-2.21-2.169c0-1.197,0.988-2.17,2.21-2.17
		S139.326,32.378,139.326,33.574"/>
	<path fill="#E76F70" d="M149.709,47.595c0,1.197-0.989,2.171-2.216,2.171c-1.222,0-2.212-0.975-2.212-2.171
		c0-1.196,0.992-2.169,2.212-2.169C148.722,45.426,149.709,46.398,149.709,47.595"/>
	<path fill="#E76F70" d="M159.417,62.62c0,1.196-0.988,2.169-2.211,2.169c-1.222,0-2.211-0.973-2.211-2.169
		c0-1.197,0.99-2.169,2.211-2.169C158.43,60.45,159.417,61.422,159.417,62.62"/>
</g>
</svg>
